<?xml version="1.0" encoding="UTF-8" standalone="no"?>
<!-- Created with Inkscape (http://www.inkscape.org/) -->

<svg
   xmlns:dc="http://purl.org/dc/elements/1.1/"
   xmlns:cc="http://creativecommons.org/ns#"
   xmlns:rdf="http://www.w3.org/1999/02/22-rdf-syntax-ns#"
   xmlns:svg="http://www.w3.org/2000/svg"
   xmlns="http://www.w3.org/2000/svg"
   xmlns:sodipodi="http://sodipodi.sourceforge.net/DTD/sodipodi-0.dtd"
   xmlns:inkscape="http://www.inkscape.org/namespaces/inkscape"
   width="210mm"
   height="297mm"
   viewBox="0 0 210 297"
   version="1.1"
   id="svg1673"
   inkscape:version="0.92.4 (5da689c313, 2019-01-14)"
   sodipodi:docname="cookie-love.svg">
  <defs
     id="defs1667">
    <inkscape:path-effect
       effect="bspline"
       id="path-effect6577"
       is_visible="true"
       weight="33.333333"
       steps="2"
       helper_size="0"
       apply_no_weight="true"
       apply_with_weight="true"
       only_selected="false" />
    <inkscape:path-effect
       effect="bspline"
       id="path-effect6535"
       is_visible="true"
       weight="33.333333"
       steps="2"
       helper_size="0"
       apply_no_weight="true"
       apply_with_weight="true"
       only_selected="false" />
    <inkscape:path-effect
       effect="bspline"
       id="path-effect4685-5"
       is_visible="true"
       weight="33.333333"
       steps="2"
       helper_size="0"
       apply_no_weight="true"
       apply_with_weight="true"
       only_selected="false" />
    <inkscape:path-effect
       effect="bspline"
       id="path-effect4661-0-8"
       is_visible="true"
       weight="33.333333"
       steps="2"
       helper_size="0"
       apply_no_weight="true"
       apply_with_weight="true"
       only_selected="false" />
    <inkscape:path-effect
       effect="bspline"
       id="path-effect4661-2"
       is_visible="true"
       weight="33.333333"
       steps="2"
       helper_size="0"
       apply_no_weight="true"
       apply_with_weight="true"
       only_selected="false" />
    <inkscape:path-effect
       effect="bspline"
       id="path-effect4655-1-3-3"
       is_visible="true"
       weight="33.333333"
       steps="2"
       helper_size="0"
       apply_no_weight="true"
       apply_with_weight="true"
       only_selected="false" />
    <inkscape:path-effect
       effect="bspline"
       id="path-effect4685-9-4"
       is_visible="true"
       weight="33.333333"
       steps="2"
       helper_size="0"
       apply_no_weight="true"
       apply_with_weight="true"
       only_selected="false" />
    <inkscape:path-effect
       effect="bspline"
       id="path-effect4661-0-7-3"
       is_visible="true"
       weight="33.333333"
       steps="2"
       helper_size="0"
       apply_no_weight="true"
       apply_with_weight="true"
       only_selected="false" />
    <inkscape:path-effect
       effect="bspline"
       id="path-effect4661-8-3"
       is_visible="true"
       weight="33.333333"
       steps="2"
       helper_size="0"
       apply_no_weight="true"
       apply_with_weight="true"
       only_selected="false" />
    <inkscape:path-effect
       effect="bspline"
       id="path-effect4655-1-8"
       is_visible="true"
       weight="33.333333"
       steps="2"
       helper_size="0"
       apply_no_weight="true"
       apply_with_weight="true"
       only_selected="false" />
    <inkscape:path-effect
       effect="bspline"
       id="path-effect6370"
       is_visible="true"
       weight="33.333333"
       steps="2"
       helper_size="0"
       apply_no_weight="true"
       apply_with_weight="true"
       only_selected="false" />
    <inkscape:path-effect
       effect="bspline"
       id="path-effect3911-3"
       is_visible="true"
       weight="33.333333"
       steps="2"
       helper_size="0"
       apply_no_weight="true"
       apply_with_weight="true"
       only_selected="false" />
    <inkscape:path-effect
       effect="bspline"
       id="path-effect3915-6"
       is_visible="true"
       weight="33.333333"
       steps="2"
       helper_size="0"
       apply_no_weight="true"
       apply_with_weight="true"
       only_selected="false" />
    <inkscape:path-effect
       effect="bspline"
       id="path-effect3102-1"
       is_visible="true"
       weight="33.333333"
       steps="2"
       helper_size="0"
       apply_no_weight="true"
       apply_with_weight="true"
       only_selected="false" />
    <inkscape:path-effect
       effect="bspline"
       id="path-effect3911-3-8"
       is_visible="true"
       weight="33.333333"
       steps="2"
       helper_size="0"
       apply_no_weight="true"
       apply_with_weight="true"
       only_selected="false" />
    <inkscape:path-effect
       effect="bspline"
       id="path-effect3915-6-2"
       is_visible="true"
       weight="33.333333"
       steps="2"
       helper_size="0"
       apply_no_weight="true"
       apply_with_weight="true"
       only_selected="false" />
    <inkscape:path-effect
       effect="bspline"
       id="path-effect3102-1-7"
       is_visible="true"
       weight="33.333333"
       steps="2"
       helper_size="0"
       apply_no_weight="true"
       apply_with_weight="true"
       only_selected="false" />
  </defs>
  <sodipodi:namedview
     id="base"
     pagecolor="#ffffff"
     bordercolor="#666666"
     borderopacity="1.0"
     inkscape:pageopacity="0.0"
     inkscape:pageshadow="2"
     inkscape:zoom="0.12374369"
     inkscape:cx="-1893.9643"
     inkscape:cy="1063.2825"
     inkscape:document-units="mm"
     inkscape:current-layer="layer1"
     showgrid="false"
     inkscape:window-width="1366"
     inkscape:window-height="705"
     inkscape:window-x="-8"
     inkscape:window-y="-8"
     inkscape:window-maximized="1" />
  <metadata
     id="metadata1670">
    <rdf:RDF>
      <cc:Work
         rdf:about="">
        <dc:format>image/svg+xml</dc:format>
        <dc:type
           rdf:resource="http://purl.org/dc/dcmitype/StillImage" />
        <dc:title></dc:title>
      </cc:Work>
    </rdf:RDF>
  </metadata>
  <g
     inkscape:label="Layer 1"
     inkscape:groupmode="layer"
     id="layer1">
    <rect
       style="display:inline;opacity:1;vector-effect:none;fill:#e37115;fill-opacity:1;stroke:#000000;stroke-width:0.30738845px;stroke-linecap:butt;stroke-linejoin:miter;stroke-miterlimit:4;stroke-dasharray:none;stroke-dashoffset:0;stroke-opacity:0"
       id="rect6541"
       width="89.650856"
       height="107.38101"
       x="41.059891"
       y="129.53297"
       rx="4.4166954e-06"
       ry="5.5580367e-06"
       inkscape:export-xdpi="96"
       inkscape:export-ydpi="96" />
    <path
       transform="matrix(0.26458333,0,0,0.26458333,-716.14286,-696.52365)"
       style="display:inline;fill:#ff7f2a;stroke:#000000;stroke-width:1px;stroke-linecap:butt;stroke-linejoin:miter;stroke-opacity:0"
       d="m 2609.8547,2558.7526 c -10.2201,48.3134 -19.5111,85.4775 -16.1542,120.9547 3.357,35.4771 20.7993,72.2998 22.6578,108.5347 1.8584,36.2349 -11.1489,73.3986 -14.401,106.3825 -3.2521,32.9839 3.2513,61.7845 19.9756,92.446 16.7244,30.6615 43.6678,63.1794 104.7564,124.9648 61.0885,61.7854 156.3219,152.8378 244.5873,164.9158 88.2655,12.0779 169.5622,-54.8177 231.082,-109.3625 61.5198,-54.5448 103.264,-96.74 139.466,-141.5625 36.2019,-44.8225 66.8623,-92.2729 101.7367,-156.6532 34.8743,-64.3803 73.9627,-145.6906 93.5067,-186.3452 19.5439,-40.6546 19.5439,-157.7217 6.4256,-193.3285 -13.1182,-35.6067 -38.9117,-105.6177 -91.3493,-164.3938 -52.4377,-58.7761 -129.6664,-104.7455 -214.2176,-129.7587 -84.5511,-25.0131 -183.0302,-28.875 -272.2246,-3.7893 -89.1943,25.0857 -172.8128,78.9732 -225.772,117.0665 -52.9593,38.0933 -75.2575,60.3915 -91.982,101.2734 -16.7245,40.8818 -27.8733,100.3419 -38.0934,148.6553 z"
       id="path6368"
       inkscape:connector-curvature="0"
       inkscape:path-effect="#path-effect6370"
       inkscape:original-d="m 2608.9254,2569.903 c -9.2901,37.1632 -18.5811,74.3273 -27.8732,111.4925 16.7254,33.4478 33.4488,70.611 50.1717,105.9179 -13.0066,37.1637 -26.0139,74.3274 -39.0224,111.4926 6.5049,28.8021 13.0083,57.6027 19.5111,86.4067 26.9458,32.5184 53.8892,65.0363 80.8322,97.5559 95.234,91.0511 190.4674,182.1035 285.6996,273.1568 81.2976,-66.8965 162.5943,-133.7921 243.8899,-200.6866 41.7441,-42.195 83.4884,-84.3901 125.231,-126.5837 30.6615,-47.4513 61.3219,-94.9017 91.9813,-142.351 39.0894,-81.3113 78.1779,-162.6216 117.2653,-243.931 V 2525.306 c -27.8714,-70.6112 -52.0288,-141.2249 -78.0447,-211.8359 -78.0432,-48.314 -156.0886,-92.9114 -234.1344,-139.3656 -91.0515,-3.7175 -189.5363,-7.4339 -284.3059,-11.1493 -83.6193,53.8876 -167.2378,107.7751 -250.8582,161.6642 -22.2979,22.2978 -44.5961,44.596 -66.8956,66.8955 -11.1487,59.4644 -22.2975,118.9244 -33.4477,178.3881 z"
       sodipodi:nodetypes="cccccczccccccccccc"
       inkscape:export-xdpi="96"
       inkscape:export-ydpi="96" />
    <path
       style="display:inline;fill:#d45500;stroke:#000000;stroke-width:0.38615316px;stroke-linecap:butt;stroke-linejoin:miter;stroke-opacity:0"
       d="m 52.816694,77.01676 c -0.6722,-0.12353 1.14017,5.61139 1.90696,6.33707 1.75951,1.41187 3.12886,-9.99705 3.12886,-9.99705 0,-2.66996 -3.81471,3.05724 -5.03582,3.65998 z"
       id="path4830-6"
       inkscape:connector-curvature="0"
       sodipodi:nodetypes="cccc"
       inkscape:export-filename="C:\Users\Zylka Family\Documents\homewrecker\vicci-neutral.png"
       inkscape:export-xdpi="96"
       inkscape:export-ydpi="96" />
    <path
       style="display:inline;fill:#552200;stroke:#000000;stroke-width:0.32469839px;stroke-linecap:butt;stroke-linejoin:miter;stroke-opacity:0"
       d="m 61.879174,-14.52933 -27.547301,-15.70792 -33.56043784,0.3687 31.62839784,6.02268 23.026821,11.58412 z"
       id="path4657-4-4-6"
       inkscape:connector-curvature="0"
       inkscape:export-filename="C:\Users\Zylka Family\Documents\homewrecker\vicci-neutral.png"
       inkscape:export-xdpi="96"
       inkscape:export-ydpi="96" />
    <path
       style="fill:#ff0000;stroke:#000000;stroke-width:0.26458332px;stroke-linecap:butt;stroke-linejoin:miter;stroke-opacity:0"
       d="m 59.868373,209.87013 c -6.770828,-8.90898 -13.541685,-17.81801 -16.214313,-24.32169 -2.672628,-6.50369 -1.247184,-10.60184 1.336381,-13.45257 2.583566,-2.85072 6.325629,-4.45446 9.354398,-2.94012 3.028769,1.51435 5.345355,6.14752 7.66169,10.78019 3.029055,-4.09813 6.058333,-8.19656 9.443542,-9.17645 3.385209,-0.97989 7.127254,1.15841 8.998099,4.45453 1.870845,3.29612 1.870845,7.75071 -1.871019,13.71995 -3.741864,5.96925 -11.225231,13.45261 -18.708778,20.93616 z"
       id="path3100-3-4"
       inkscape:connector-curvature="0"
       inkscape:path-effect="#path-effect3102-1-7"
       inkscape:original-d="m 59.868373,209.87013 c 0,0 -13.54139,-17.81823 -20.312483,-26.72695 1.425695,-4.09838 2.85114,-8.19653 4.276313,-12.2944 3.741748,-1.60376 7.483811,-3.2075 11.22532,-4.81085 2.316404,4.63201 6.949006,13.89801 6.949006,13.89801 0,0 6.058377,-8.19653 9.087165,-12.29439 3.741767,2.13773 7.483811,4.27604 11.225321,6.41446 2.65e-4,4.45413 2.65e-4,8.90872 0,13.36348 -7.483726,7.48373 -22.450642,22.45064 -22.450642,22.45064 z"
       sodipodi:nodetypes="ccccccccc"
       transform="matrix(1.2965554,-0.00878182,0.01361454,1.1044815,-47.326065,-180.24404)"
       inkscape:export-xdpi="96"
       inkscape:export-ydpi="96" />
    <path
       style="display:inline;fill:#d4aa00;fill-opacity:1;stroke:#000000;stroke-width:0.26458332px;stroke-linecap:butt;stroke-linejoin:miter;stroke-opacity:0"
       d="m 109.87316,-158.34244 c -15.021926,-5.65759 -37.912796,0.37428 -53.190426,5.21475 -21.605477,6.84535 -40.904397,20.92077 -57.36222084,36.50324 -16.81572616,15.92133 -34.63681616,42.614481 -41.71799316,64.66287 -8.839385,27.52281 -13.726027,56.6396702 -12.5154,85.52185 1.235419,29.47327 2.064729,78.42366 15.644283,115.76743 0,0 29.202567,-147.0558898 29.202567,-139.7552598 0,7.3006398 3.1288302,50.0615698 5.2147522,43.8038798 2.085896,-6.25768 39.1831508,-83.61357 39.1831508,-83.61357 L 31.651988,21.0449 54.383694,-39.37844 63.532134,7.4394402 91.100084,-60.30519 c 0,0 -1.58727,42.6529 2.08589,40.67503 l 29.202566,-37.54614 3.71303,29.59266 19.2319,-31.67859 7.0644,30.45325 23.18112,-22.10964 c 0,0 37.93077,-38.513753 26.07373,-58.40518 -14.64621,-24.57058 -91.77956,-49.01864 -91.77956,-49.01864 z"
       id="path6537"
       inkscape:connector-curvature="0"
       sodipodi:nodetypes="ssssscsccccccscccccss"
       inkscape:export-xdpi="96"
       inkscape:export-ydpi="96" />
    <path
       style="display:inline;fill:#552200;stroke:#000000;stroke-width:0.32774168px;stroke-linecap:butt;stroke-linejoin:miter;stroke-opacity:0"
       d="m 117.89097,-9.5463049 31.27368,-11.0993531 33.13451,5.7453 -32.84872,0.877826 -25.74815,7.7506217 z"
       id="path4657-4-0"
       inkscape:connector-curvature="0"
       inkscape:export-filename="C:\Users\Zylka Family\Documents\homewrecker\vicci-neutral.png"
       inkscape:export-xdpi="96"
       inkscape:export-ydpi="96" />
    <path
       style="display:inline;fill:#ff3d3d;fill-opacity:1;stroke:#000000;stroke-width:1px;stroke-linecap:butt;stroke-linejoin:miter;stroke-opacity:0"
       d="m 2878.2389,3069.4169 c 9.6548,-2.6705 38.4992,4.2972 65.2599,8.9162 26.7607,4.6191 51.4333,6.8889 82.6276,2.9349 31.1943,-3.954 65.7992,-13.2923 77.1291,-8.4688 11.3299,4.8236 -4.6048,22.9522 -30.6535,32.0624 -26.0487,9.1102 -64.2809,8.8346 -91.6298,7.3074 -27.3489,-1.5272 -45.0012,-4.3144 -58.9381,-7.1017 -13.9369,-2.7874 -24.1565,-5.5746 -34.0351,-13.1227 -9.8786,-7.5482 -19.415,-19.8571 -9.7601,-22.5277 z"
       id="path6533"
       inkscape:connector-curvature="0"
       inkscape:path-effect="#path-effect6535"
       inkscape:original-d="m 2859.0474,3059.7782 c 28.8465,6.9675 57.6909,13.9352 86.5362,20.9038 24.6759,2.2697 49.3485,4.5395 74.0212,6.8099 37.7159,-10.1779 72.3208,-19.5163 113.1433,-30.5324 -18.1622,20.6637 -34.0969,38.7923 -50.34,57.2708 -35.8548,-0.2589 -74.087,-0.5345 -111.132,-0.8012 -17.6526,-2.7884 -35.3049,-5.5756 -52.9589,-8.3619 -10.2197,-2.7885 -20.4393,-5.5757 -30.6605,-8.362 -9.535,-12.3098 -19.0714,-24.6187 -28.6093,-36.927 z"
       transform="matrix(0.21619155,0,0,0.66720743,-576.10654,-1933.312)"
       inkscape:export-xdpi="96"
       inkscape:export-ydpi="96"
       sodipodi:nodetypes="ccccccccc" />
    <path
       style="display:inline;fill:#d4aa00;stroke:#000000;stroke-width:0.30565238px;stroke-linecap:butt;stroke-linejoin:miter;stroke-opacity:0"
       d="m 189.00295,-96.8084 13.91853,-60.49108 18.09408,63.61991 34.79642,-52.14747 -8.35115,76.135309 48.71492,-29.202565 -33.40454,57.362226 16.70227,56.31926 -33.05183,-44.84682 -0.68649,71.96349 L 230.41719,3.3147502 210.59741,36.68913 181.21793,12.97574 172.3007,-34.23143 162.55771,-80.121209 Z"
       id="path6539"
       inkscape:connector-curvature="0"
       sodipodi:nodetypes="cccccccccccccccc"
       inkscape:export-xdpi="96"
       inkscape:export-ydpi="96" />
    <path
       style="display:inline;fill:#ff7f2a;stroke:#000000;stroke-width:0.26458332px;stroke-linecap:butt;stroke-linejoin:miter;stroke-opacity:0"
       d="m 38.837494,197.0262 c -12.204361,-0.27313 -25.102931,8.20658 -35.9357398,12.23163 -11.079982,4.11689 -22.3772142,4.26033 -32.6278872,10.14577 -7.844527,4.50398 -15.221295,10.79182 -21.207916,17.57288 -7.811029,8.84756 -12.305718,16.24619 -12.305718,16.24619 l 314.300567,0.96885 c 0,0 -32.11674,-18.52859 -42.37236,-27.41316 -10.25561,-8.8846 -33.92182,-14.41559 -46.99782,-20.03841 -13.076,-5.62282 -31.83806,-9.53479 -31.83806,-9.53479 l 1.21251,-13.76471 c -7.00876,-0.43688 -43.446406,0.79045 -49.989606,0.64535 -6.5432,-0.1451 -35.96425,-8.71625 -40.24259,-5.37681 0,0 1.66563,18.39912 -1.99538,18.31721 z"
       id="path6334-2"
       inkscape:connector-curvature="0"
       sodipodi:nodetypes="sssscczzccscs"
       inkscape:export-filename="C:\Users\Zylka Family\Documents\homewrecker\vicci-neutral.png"
       inkscape:export-xdpi="96"
       inkscape:export-ydpi="96" />
    <path
       style="display:inline;fill:#ff6f92;fill-opacity:1;stroke:#ef6d80;stroke-width:0.26458332px;stroke-linecap:butt;stroke-linejoin:miter;stroke-opacity:1"
       d="m -15.540021,212.0476 4.424865,41.29871 h 38.348788 l -6.421279,-53.27727 z"
       id="path6558"
       inkscape:connector-curvature="0"
       sodipodi:nodetypes="ccccc"
       inkscape:export-xdpi="96"
       inkscape:export-ydpi="96" />
    <path
       style="display:inline;fill:#ff6f92;fill-opacity:1;stroke:#ef6d80;stroke-width:0.26458332px;stroke-linecap:butt;stroke-linejoin:miter;stroke-opacity:1"
       d="m 190.21842,212.15264 -4.42487,41.29871 h -38.34879 l 5.89981,-50.14841 z"
       id="path6558-0"
       inkscape:connector-curvature="0"
       sodipodi:nodetypes="ccccc"
       inkscape:export-xdpi="96"
       inkscape:export-ydpi="96" />
    <path
       style="display:inline;fill:#ff7f2a;stroke:#000000;stroke-width:1px;stroke-linecap:butt;stroke-linejoin:miter;stroke-opacity:0"
       d="m 3428.1013,2899.9644 c 2.6283,-24.9655 15.7678,-59.1282 29.9429,-82.122 14.1752,-22.9938 29.3865,-34.8198 43.3678,-30.5824 13.9814,4.2373 25.9927,23.3562 25.6143,47.0071 -0.3783,23.6508 -13.5177,51.2434 -29.9422,72.2671 -16.4246,21.0238 -36.133,35.4766 -49.9304,34.8194 -13.7974,-0.6572 -21.6806,-16.4237 -19.0524,-41.3892 z"
       id="path6575"
       inkscape:connector-curvature="0"
       inkscape:path-effect="#path-effect6577"
       inkscape:original-d="m 3417.5896,2909.1629 c 13.1405,-34.1638 26.28,-68.3265 39.4185,-102.4883 15.2112,-11.8261 30.4225,-23.6521 45.6323,-35.4767 13.6962,19.7068 24.7655,39.4176 37.1467,59.1278 -13.1387,27.5924 -26.278,55.185 -39.4186,82.779 -19.7091,14.4531 -39.4175,28.906 -59.1278,43.3604 -7.8832,-15.7693 -15.7664,-31.5358 -23.6511,-47.3022 z"
       transform="matrix(0.36011398,0,0,0.33236326,-1054.1257,-888.51514)"
       inkscape:export-xdpi="96"
       inkscape:export-ydpi="96" />
    <rect
       style="display:inline;opacity:1;vector-effect:none;fill:#e9afaf;fill-opacity:1;stroke:#000000;stroke-width:0.26458332px;stroke-linecap:butt;stroke-linejoin:miter;stroke-miterlimit:4;stroke-dasharray:none;stroke-dashoffset:0;stroke-opacity:0.00450451"
       id="rect6579"
       width="23.466387"
       height="41.717995"
       x="179.75078"
       y="95.615768"
       rx="4.2646598e-06"
       ry="4.2646598e-06"
       inkscape:export-xdpi="96"
       inkscape:export-ydpi="96" />
    <rect
       style="display:inline;opacity:1;vector-effect:none;fill:#ff8080;fill-opacity:1;stroke:#000000;stroke-width:0.26458332px;stroke-linecap:butt;stroke-linejoin:miter;stroke-miterlimit:4;stroke-dasharray:none;stroke-dashoffset:0;stroke-opacity:0"
       id="rect6583"
       width="7.8221211"
       height="15.122767"
       x="182.48854"
       y="99.52684"
       rx="4.2646598e-06"
       ry="4.2646598e-06"
       inkscape:export-xdpi="96"
       inkscape:export-ydpi="96" />
    <rect
       style="display:inline;opacity:1;vector-effect:none;fill:#ff8080;fill-opacity:1;stroke:#000000;stroke-width:0.26458332px;stroke-linecap:butt;stroke-linejoin:miter;stroke-miterlimit:4;stroke-dasharray:none;stroke-dashoffset:0;stroke-opacity:0"
       id="rect6583-2"
       width="7.8221211"
       height="15.122767"
       x="192.918"
       y="99.787613"
       rx="4.2646598e-06"
       ry="4.2646598e-06"
       inkscape:export-xdpi="96"
       inkscape:export-ydpi="96" />
    <rect
       style="display:inline;opacity:1;vector-effect:none;fill:#ff8080;fill-opacity:1;stroke:#000000;stroke-width:0.26458332px;stroke-linecap:butt;stroke-linejoin:miter;stroke-miterlimit:4;stroke-dasharray:none;stroke-dashoffset:0;stroke-opacity:0"
       id="rect6583-5"
       width="7.8221211"
       height="15.122767"
       x="182.6189"
       y="117.9088"
       rx="4.2646598e-06"
       ry="4.2646598e-06"
       inkscape:export-xdpi="96"
       inkscape:export-ydpi="96" />
    <rect
       style="display:inline;opacity:1;vector-effect:none;fill:#ff8080;fill-opacity:1;stroke:#000000;stroke-width:0.26458332px;stroke-linecap:butt;stroke-linejoin:miter;stroke-miterlimit:4;stroke-dasharray:none;stroke-dashoffset:0;stroke-opacity:0"
       id="rect6583-2-1"
       width="7.8221211"
       height="15.122767"
       x="193.04837"
       y="118.16957"
       rx="4.2646598e-06"
       ry="4.2646598e-06"
       inkscape:export-xdpi="96"
       inkscape:export-ydpi="96" />
    <ellipse
       style="display:inline;opacity:1;vector-effect:none;fill:#a02c2c;fill-opacity:1;stroke:#000000;stroke-width:0.61291981px;stroke-linecap:butt;stroke-linejoin:miter;stroke-miterlimit:4;stroke-dasharray:none;stroke-dashoffset:0;stroke-opacity:0"
       id="path6618"
       cx="191.6795"
       cy="86.815872"
       rx="1.9769151"
       ry="10.841986"
       inkscape:export-xdpi="96"
       inkscape:export-ydpi="96" />
    <path
       style="fill:#ff0000;stroke:#000000;stroke-width:0.26458332px;stroke-linecap:butt;stroke-linejoin:miter;stroke-opacity:0"
       d="m 59.868373,209.87013 c -6.770828,-8.90898 -13.541685,-17.81801 -16.214313,-24.32169 -2.672628,-6.50369 -1.247184,-10.60184 1.336381,-13.45257 2.583566,-2.85072 6.325629,-4.45446 9.354398,-2.94012 3.028769,1.51435 5.345355,6.14752 7.66169,10.78019 3.029055,-4.09813 6.058333,-8.19656 9.443542,-9.17645 3.385209,-0.97989 7.127254,1.15841 8.998099,4.45453 1.870845,3.29612 1.870845,7.75071 -1.871019,13.71995 -3.741864,5.96925 -11.225231,13.45261 -18.708778,20.93616 z"
       id="path3100-3"
       inkscape:connector-curvature="0"
       inkscape:path-effect="#path-effect3102-1"
       inkscape:original-d="m 59.868373,209.87013 c 0,0 -13.54139,-17.81823 -20.312483,-26.72695 1.425695,-4.09838 2.85114,-8.19653 4.276313,-12.2944 3.741748,-1.60376 7.483811,-3.2075 11.22532,-4.81085 2.316404,4.63201 6.949006,13.89801 6.949006,13.89801 0,0 6.058377,-8.19653 9.087165,-12.29439 3.741767,2.13773 7.483811,4.27604 11.225321,6.41446 2.65e-4,4.45413 2.65e-4,8.90872 0,13.36348 -7.483726,7.48373 -22.450642,22.45064 -22.450642,22.45064 z"
       sodipodi:nodetypes="ccccccccc"
       transform="matrix(1.2965571,0.00851934,-0.00112414,1.1045649,45.968774,-170.69813)"
       inkscape:export-xdpi="96"
       inkscape:export-ydpi="96" />
    <path
       style="opacity:1;vector-effect:none;fill:#ffffff;fill-opacity:1;fill-rule:nonzero;stroke:#000000;stroke-width:0.26458332px;stroke-linecap:butt;stroke-linejoin:miter;stroke-miterlimit:4;stroke-dasharray:none;stroke-dashoffset:0;stroke-opacity:0"
       d="m 82.398811,160.55059 c 2.393848,-0.62996 4.788008,-1.26 7.055569,-0.47266 2.26756,0.78735 4.409708,2.9925 5.260517,5.06292 0.85081,2.07042 0.410424,4.00701 -0.02989,5.94329 -0.465756,-2.16534 -0.931552,-4.33086 -1.776864,-5.76977 -0.845311,-1.43892 -2.070287,-2.15163 -3.145682,-2.72116 -1.075395,-0.56953 -2.001094,-0.99581 -3.20354,-1.31243 -1.202446,-0.31662 -2.681284,-0.52341 -4.160108,-0.73019 z"
       id="path3909-4"
       inkscape:connector-curvature="0"
       inkscape:path-effect="#path-effect3911-3"
       inkscape:original-d="m 82.398811,160.55059 c 0,0 4.787961,-1.26018 7.181545,-1.88988 2.141852,2.20431 4.284,4.40946 6.425597,6.61458 -0.440051,1.93602 -1.320948,5.80885 -1.320948,5.80885 0,0 -0.931246,-4.33093 -1.397267,-6.49601 -1.224725,-0.71299 -2.449703,-1.4257 -3.674956,-2.13816 -0.925571,-0.42661 -1.851271,-0.85289 -2.7775,-1.27903 -1.478769,-0.20707 -4.436471,-0.62035 -4.436471,-0.62035 z"
       sodipodi:nodetypes="ccccsscc"
       transform="rotate(16.352266,593.7736,286.71639)"
       inkscape:export-xdpi="96"
       inkscape:export-ydpi="96" />
    <path
       transform="rotate(5.127848,1635.4583,684.96065)"
       style="opacity:1;vector-effect:none;fill:#ffffff;fill-opacity:1;fill-rule:nonzero;stroke:#000000;stroke-width:0.26458332px;stroke-linecap:butt;stroke-linejoin:miter;stroke-miterlimit:4;stroke-dasharray:none;stroke-dashoffset:0;stroke-opacity:0"
       d="m 57.641368,157.71577 c 2.519842,0.50397 5.039887,1.00797 6.99585,2.18584 1.955962,1.17786 3.348463,3.02995 4.230436,4.69934 0.881973,1.6694 1.253454,3.1563 1.624906,4.64309 -2.078869,-2.45684 -4.157758,-4.91371 -5.683377,-6.39952 -1.525619,-1.48581 -2.694995,-2.10489 -3.797505,-2.79789 -1.10251,-0.69301 -2.236381,-1.51191 -3.37031,-2.33086 z"
       id="path3913-9"
       inkscape:connector-curvature="0"
       inkscape:path-effect="#path-effect3915-6"
       inkscape:original-d="m 57.641368,157.71577 c 0,0 5.039948,1.00767 7.559526,1.5119 1.392582,1.85158 2.78508,3.70367 4.177311,5.55601 0.371732,1.48659 1.114355,4.46036 1.114355,4.46036 0,0 -4.157474,-4.91395 -6.236607,-7.37053 -0.944641,-0.56721 -2.141601,-1.13419 -3.212798,-1.7009 -1.133769,-0.81929 -3.401787,-2.45684 -3.401787,-2.45684 z"
       sodipodi:nodetypes="ccccccc"
       inkscape:export-xdpi="96"
       inkscape:export-ydpi="96" />
    <path
       style="opacity:1;vector-effect:none;fill:#ffffff;fill-opacity:1;fill-rule:nonzero;stroke:#000000;stroke-width:0.26458332px;stroke-linecap:butt;stroke-linejoin:miter;stroke-miterlimit:4;stroke-dasharray:none;stroke-dashoffset:0;stroke-opacity:0"
       d="m 82.398811,160.55059 c 2.393848,-0.62996 4.788008,-1.26 7.055569,-0.47266 2.26756,0.78735 4.409708,2.9925 5.260517,5.06292 0.85081,2.07042 0.410424,4.00701 -0.02989,5.94329 -0.465756,-2.16534 -0.931552,-4.33086 -1.776864,-5.76977 -0.845311,-1.43892 -2.070287,-2.15163 -3.145682,-2.72116 -1.075395,-0.56953 -2.001094,-0.99581 -3.20354,-1.31243 -1.202446,-0.31662 -2.681284,-0.52341 -4.160108,-0.73019 z"
       id="path3909-4-5"
       inkscape:connector-curvature="0"
       inkscape:path-effect="#path-effect3911-3-8"
       inkscape:original-d="m 82.398811,160.55059 c 0,0 4.787961,-1.26018 7.181545,-1.88988 2.141852,2.20431 4.284,4.40946 6.425597,6.61458 -0.440051,1.93602 -1.320948,5.80885 -1.320948,5.80885 0,0 -0.931246,-4.33093 -1.397267,-6.49601 -1.224725,-0.71299 -2.449703,-1.4257 -3.674956,-2.13816 -0.925571,-0.42661 -1.851271,-0.85289 -2.7775,-1.27903 -1.478769,-0.20707 -4.436471,-0.62035 -4.436471,-0.62035 z"
       sodipodi:nodetypes="ccccsscc"
       transform="rotate(15.587726,611.87521,-40.419935)"
       inkscape:export-xdpi="96"
       inkscape:export-ydpi="96" />
    <path
       transform="rotate(4.3633082,1999.1057,-406.94803)"
       style="opacity:1;vector-effect:none;fill:#ffffff;fill-opacity:1;fill-rule:nonzero;stroke:#000000;stroke-width:0.26458332px;stroke-linecap:butt;stroke-linejoin:miter;stroke-miterlimit:4;stroke-dasharray:none;stroke-dashoffset:0;stroke-opacity:0"
       d="m 57.641368,157.71577 c 2.519842,0.50397 5.039887,1.00797 6.99585,2.18584 1.955962,1.17786 3.348463,3.02995 4.230436,4.69934 0.881973,1.6694 1.253454,3.1563 1.624906,4.64309 -2.078869,-2.45684 -4.157758,-4.91371 -5.683377,-6.39952 -1.525619,-1.48581 -2.694995,-2.10489 -3.797505,-2.79789 -1.10251,-0.69301 -2.236381,-1.51191 -3.37031,-2.33086 z"
       id="path3913-9-4"
       inkscape:connector-curvature="0"
       inkscape:path-effect="#path-effect3915-6-2"
       inkscape:original-d="m 57.641368,157.71577 c 0,0 5.039948,1.00767 7.559526,1.5119 1.392582,1.85158 2.78508,3.70367 4.177311,5.55601 0.371732,1.48659 1.114355,4.46036 1.114355,4.46036 0,0 -4.157474,-4.91395 -6.236607,-7.37053 -0.944641,-0.56721 -2.141601,-1.13419 -3.212798,-1.7009 -1.133769,-0.81929 -3.401787,-2.45684 -3.401787,-2.45684 z"
       sodipodi:nodetypes="ccccccc"
       inkscape:export-xdpi="96"
       inkscape:export-ydpi="96" />
    <ellipse
       style="opacity:1;vector-effect:none;fill:#ff2a2a;fill-opacity:1;fill-rule:nonzero;stroke:#000000;stroke-width:0.26458332px;stroke-linecap:butt;stroke-linejoin:miter;stroke-miterlimit:4;stroke-dasharray:none;stroke-dashoffset:0;stroke-opacity:0"
       id="path907"
       cx="27.032181"
       cy="64.224632"
       rx="21.381561"
       ry="4.8108511"
       transform="rotate(9.0691846)"
       inkscape:export-xdpi="96"
       inkscape:export-ydpi="96" />
    <ellipse
       style="opacity:1;vector-effect:none;fill:#ff2a2a;fill-opacity:1;fill-rule:nonzero;stroke:#000000;stroke-width:0.26458332px;stroke-linecap:butt;stroke-linejoin:miter;stroke-miterlimit:4;stroke-dasharray:none;stroke-dashoffset:0;stroke-opacity:0"
       id="path909"
       cx="128.41954"
       cy="60.959904"
       rx="25.390606"
       ry="5.6126599"
       transform="rotate(7.4216429)"
       inkscape:export-xdpi="96"
       inkscape:export-ydpi="96" />
  </g>
</svg>
