<?xml version="1.0" encoding="UTF-8" standalone="no"?>
<!-- Created with Inkscape (http://www.inkscape.org/) -->

<svg
   xmlns:dc="http://purl.org/dc/elements/1.1/"
   xmlns:cc="http://creativecommons.org/ns#"
   xmlns:rdf="http://www.w3.org/1999/02/22-rdf-syntax-ns#"
   xmlns:svg="http://www.w3.org/2000/svg"
   xmlns="http://www.w3.org/2000/svg"
   xmlns:sodipodi="http://sodipodi.sourceforge.net/DTD/sodipodi-0.dtd"
   xmlns:inkscape="http://www.inkscape.org/namespaces/inkscape"
   width="210mm"
   height="297mm"
   viewBox="0 0 210 297"
   version="1.1"
   id="svg1673"
   inkscape:version="0.92.4 (5da689c313, 2019-01-14)"
   sodipodi:docname="cookie-sad.svg">
  <defs
     id="defs1667">
    <inkscape:path-effect
       effect="bspline"
       id="path-effect6577"
       is_visible="true"
       weight="33.333333"
       steps="2"
       helper_size="0"
       apply_no_weight="true"
       apply_with_weight="true"
       only_selected="false" />
    <inkscape:path-effect
       effect="bspline"
       id="path-effect6535"
       is_visible="true"
       weight="33.333333"
       steps="2"
       helper_size="0"
       apply_no_weight="true"
       apply_with_weight="true"
       only_selected="false" />
    <inkscape:path-effect
       effect="bspline"
       id="path-effect4685-5"
       is_visible="true"
       weight="33.333333"
       steps="2"
       helper_size="0"
       apply_no_weight="true"
       apply_with_weight="true"
       only_selected="false" />
    <inkscape:path-effect
       effect="bspline"
       id="path-effect4661-0-8"
       is_visible="true"
       weight="33.333333"
       steps="2"
       helper_size="0"
       apply_no_weight="true"
       apply_with_weight="true"
       only_selected="false" />
    <inkscape:path-effect
       effect="bspline"
       id="path-effect4661-2"
       is_visible="true"
       weight="33.333333"
       steps="2"
       helper_size="0"
       apply_no_weight="true"
       apply_with_weight="true"
       only_selected="false" />
    <inkscape:path-effect
       effect="bspline"
       id="path-effect4655-1-3-3"
       is_visible="true"
       weight="33.333333"
       steps="2"
       helper_size="0"
       apply_no_weight="true"
       apply_with_weight="true"
       only_selected="false" />
    <inkscape:path-effect
       effect="bspline"
       id="path-effect4685-9-4"
       is_visible="true"
       weight="33.333333"
       steps="2"
       helper_size="0"
       apply_no_weight="true"
       apply_with_weight="true"
       only_selected="false" />
    <inkscape:path-effect
       effect="bspline"
       id="path-effect4661-0-7-3"
       is_visible="true"
       weight="33.333333"
       steps="2"
       helper_size="0"
       apply_no_weight="true"
       apply_with_weight="true"
       only_selected="false" />
    <inkscape:path-effect
       effect="bspline"
       id="path-effect4661-8-3"
       is_visible="true"
       weight="33.333333"
       steps="2"
       helper_size="0"
       apply_no_weight="true"
       apply_with_weight="true"
       only_selected="false" />
    <inkscape:path-effect
       effect="bspline"
       id="path-effect4655-1-8"
       is_visible="true"
       weight="33.333333"
       steps="2"
       helper_size="0"
       apply_no_weight="true"
       apply_with_weight="true"
       only_selected="false" />
    <inkscape:path-effect
       effect="bspline"
       id="path-effect6370"
       is_visible="true"
       weight="33.333333"
       steps="2"
       helper_size="0"
       apply_no_weight="true"
       apply_with_weight="true"
       only_selected="false" />
    <inkscape:path-effect
       effect="bspline"
       id="path-effect20784-7-3"
       is_visible="true"
       weight="33.333333"
       steps="2"
       helper_size="0"
       apply_no_weight="true"
       apply_with_weight="true"
       only_selected="false" />
    <inkscape:path-effect
       effect="bspline"
       id="path-effect20233"
       is_visible="true"
       weight="33.333333"
       steps="2"
       helper_size="0"
       apply_no_weight="true"
       apply_with_weight="true"
       only_selected="false" />
    <inkscape:path-effect
       effect="bspline"
       id="path-effect20784-7"
       is_visible="true"
       weight="33.333333"
       steps="2"
       helper_size="0"
       apply_no_weight="true"
       apply_with_weight="true"
       only_selected="false" />
    <inkscape:path-effect
       effect="bspline"
       id="path-effect20233-1"
       is_visible="true"
       weight="33.333333"
       steps="2"
       helper_size="0"
       apply_no_weight="true"
       apply_with_weight="true"
       only_selected="false" />
    <inkscape:path-effect
       effect="bspline"
       id="path-effect20784-7-2"
       is_visible="true"
       weight="33.333333"
       steps="2"
       helper_size="0"
       apply_no_weight="true"
       apply_with_weight="true"
       only_selected="false" />
    <inkscape:path-effect
       effect="bspline"
       id="path-effect20784-7-3-8"
       is_visible="true"
       weight="33.333333"
       steps="2"
       helper_size="0"
       apply_no_weight="true"
       apply_with_weight="true"
       only_selected="false" />
  </defs>
  <sodipodi:namedview
     id="base"
     pagecolor="#ffffff"
     bordercolor="#666666"
     borderopacity="1.0"
     inkscape:pageopacity="0.0"
     inkscape:pageshadow="2"
     inkscape:zoom="0.27403274"
     inkscape:cx="254.54569"
     inkscape:cy="950.59247"
     inkscape:document-units="mm"
     inkscape:current-layer="layer1"
     showgrid="false"
     inkscape:window-width="1366"
     inkscape:window-height="705"
     inkscape:window-x="-8"
     inkscape:window-y="-8"
     inkscape:window-maximized="1" />
  <metadata
     id="metadata1670">
    <rdf:RDF>
      <cc:Work
         rdf:about="">
        <dc:format>image/svg+xml</dc:format>
        <dc:type
           rdf:resource="http://purl.org/dc/dcmitype/StillImage" />
        <dc:title></dc:title>
      </cc:Work>
    </rdf:RDF>
  </metadata>
  <g
     inkscape:label="Layer 1"
     inkscape:groupmode="layer"
     id="layer1">
    <rect
       style="display:inline;opacity:1;vector-effect:none;fill:#e37115;fill-opacity:1;stroke:#000000;stroke-width:0.30738845px;stroke-linecap:butt;stroke-linejoin:miter;stroke-miterlimit:4;stroke-dasharray:none;stroke-dashoffset:0;stroke-opacity:0"
       id="rect6541"
       width="89.650856"
       height="107.38101"
       x="41.059891"
       y="129.53297"
       rx="4.4166954e-06"
       ry="5.5580367e-06"
       inkscape:export-xdpi="96"
       inkscape:export-ydpi="96"
       inkscape:export-filename="C:\Users\Zylka Family\Documents\homewrecker\cookie-angry.png" />
    <path
       transform="matrix(0.26458333,0,0,0.26458333,-716.14286,-696.52365)"
       style="display:inline;fill:#ff7f2a;stroke:#000000;stroke-width:1px;stroke-linecap:butt;stroke-linejoin:miter;stroke-opacity:0"
       d="m 2609.8547,2558.7526 c -10.2201,48.3134 -19.5111,85.4775 -16.1542,120.9547 3.357,35.4771 20.7993,72.2998 22.6578,108.5347 1.8584,36.2349 -11.1489,73.3986 -14.401,106.3825 -3.2521,32.9839 3.2513,61.7845 19.9756,92.446 16.7244,30.6615 43.6678,63.1794 104.7564,124.9648 61.0885,61.7854 156.3219,152.8378 244.5873,164.9158 88.2655,12.0779 169.5622,-54.8177 231.082,-109.3625 61.5198,-54.5448 103.264,-96.74 139.466,-141.5625 36.2019,-44.8225 66.8623,-92.2729 101.7367,-156.6532 34.8743,-64.3803 73.9627,-145.6906 93.5067,-186.3452 19.5439,-40.6546 19.5439,-157.7217 6.4256,-193.3285 -13.1182,-35.6067 -38.9117,-105.6177 -91.3493,-164.3938 -52.4377,-58.7761 -129.6664,-104.7455 -214.2176,-129.7587 -84.5511,-25.0131 -183.0302,-28.875 -272.2246,-3.7893 -89.1943,25.0857 -172.8128,78.9732 -225.772,117.0665 -52.9593,38.0933 -75.2575,60.3915 -91.982,101.2734 -16.7245,40.8818 -27.8733,100.3419 -38.0934,148.6553 z"
       id="path6368"
       inkscape:connector-curvature="0"
       inkscape:path-effect="#path-effect6370"
       inkscape:original-d="m 2608.9254,2569.903 c -9.2901,37.1632 -18.5811,74.3273 -27.8732,111.4925 16.7254,33.4478 33.4488,70.611 50.1717,105.9179 -13.0066,37.1637 -26.0139,74.3274 -39.0224,111.4926 6.5049,28.8021 13.0083,57.6027 19.5111,86.4067 26.9458,32.5184 53.8892,65.0363 80.8322,97.5559 95.234,91.0511 190.4674,182.1035 285.6996,273.1568 81.2976,-66.8965 162.5943,-133.7921 243.8899,-200.6866 41.7441,-42.195 83.4884,-84.3901 125.231,-126.5837 30.6615,-47.4513 61.3219,-94.9017 91.9813,-142.351 39.0894,-81.3113 78.1779,-162.6216 117.2653,-243.931 V 2525.306 c -27.8714,-70.6112 -52.0288,-141.2249 -78.0447,-211.8359 -78.0432,-48.314 -156.0886,-92.9114 -234.1344,-139.3656 -91.0515,-3.7175 -189.5363,-7.4339 -284.3059,-11.1493 -83.6193,53.8876 -167.2378,107.7751 -250.8582,161.6642 -22.2979,22.2978 -44.5961,44.596 -66.8956,66.8955 -11.1487,59.4644 -22.2975,118.9244 -33.4477,178.3881 z"
       sodipodi:nodetypes="cccccczccccccccccc"
       inkscape:export-xdpi="96"
       inkscape:export-ydpi="96"
       inkscape:export-filename="C:\Users\Zylka Family\Documents\homewrecker\cookie-angry.png" />
    <path
       transform="matrix(-0.28176358,-0.07549832,-0.07549832,0.28176358,1367.8137,-128.04162)"
       style="display:inline;fill:#ffffff;stroke:#000000;stroke-width:1px;stroke-linecap:butt;stroke-linejoin:miter;stroke-opacity:0"
       d="m 4007.2002,1574.3538 c -25.6961,-4.4861 -51.3908,-8.972 -75.8535,-8.9254 -24.4626,0.047 -47.6892,4.6259 -67.9713,10.8483 -20.2821,6.2224 -37.6146,14.086 -54.9488,21.9504 0,0 57.6368,116.6792 57.6368,116.6792 0,0 112.7075,14.177 112.7075,14.177 7.008,-29.1186 14.0162,-58.2382 18.7543,-84.0259 4.7381,-25.7877 7.2065,-48.2457 9.675,-70.7036 z"
       id="path4653-1-1"
       inkscape:connector-curvature="0"
       inkscape:path-effect="#path-effect4655-1-8"
       inkscape:original-d="m 4007.2002,1574.3538 c 0,0 -51.3907,-8.9728 -77.0883,-13.4583 -23.228,4.5784 -46.4546,9.1577 -69.6828,13.7385 -17.3364,7.8639 -52.0025,23.5931 -52.0025,23.5931 l 57.6368,116.6792 112.7075,14.177 c 0,0 14.0153,-58.2384 21.0239,-87.3557 2.4674,-22.458 7.4054,-67.3738 7.4054,-67.3738 z"
       sodipodi:nodetypes="cccccccc"
       inkscape:export-filename="C:\Users\Zylka Family\Documents\homewrecker\cookie-angry.png"
       inkscape:export-xdpi="96"
       inkscape:export-ydpi="96" />
    <path
       transform="matrix(0.27411127,0.09976835,-0.09976835,0.27411127,-777.42086,-804.46344)"
       style="display:inline;fill:#552200;stroke:#000000;stroke-width:1px;stroke-linecap:butt;stroke-linejoin:miter;stroke-opacity:0"
       d="m 3927.541,1571.4156 c -16.5076,0.2998 -32.7986,13.9067 -40.1529,33.2835 -7.3543,19.3768 -5.7684,44.5159 1.3925,68.1295 7.1609,23.6137 19.8955,45.6952 33.7533,55.1225 13.8578,9.4273 28.836,6.1988 41.4132,-6.8314 12.5771,-13.0301 22.5219,-35.3406 24.3798,-57.6388 1.8578,-22.2982 -4.4865,-44.3246 -16.0201,-61.8409 -11.5337,-17.5163 -28.2581,-30.5242 -44.7658,-30.2244 z"
       id="path4659-5-0"
       inkscape:connector-curvature="0"
       inkscape:path-effect="#path-effect4661-8-3"
       inkscape:original-d="m 3927.3246,1558.1082 c -16.2913,13.6071 -32.5823,27.214 -48.877,40.8242 1.5872,25.1434 3.1731,50.2825 4.7583,75.4266 12.7368,22.0826 25.4714,44.1641 38.2059,66.2482 14.9797,-3.2296 29.9579,-6.4581 44.9352,-9.6856 10.1777,-22.8318 20.1225,-45.1423 30.1822,-67.7119 -6.3433,-22.0273 -12.6876,-44.0537 -19.0329,-66.0791 -16.7223,-13.008 -33.4468,-26.0159 -50.1717,-39.0224 z"
       sodipodi:nodetypes="cccccccc"
       inkscape:export-filename="C:\Users\Zylka Family\Documents\homewrecker\cookie-angry.png"
       inkscape:export-xdpi="96"
       inkscape:export-ydpi="96" />
    <path
       transform="matrix(0.16231075,0.05907628,-0.05711797,0.15693032,-407.90579,-451.20868)"
       style="display:inline;fill:#000000;stroke:#000000;stroke-width:1px;stroke-linecap:butt;stroke-linejoin:miter;stroke-opacity:0"
       d="m 3927.541,1571.4156 c -16.5076,0.2998 -32.7986,13.9067 -40.1529,33.2835 -7.3543,19.3768 -5.7684,44.5159 1.3925,68.1295 7.1609,23.6137 19.8955,45.6952 33.7533,55.1225 13.8578,9.4273 28.836,6.1988 41.4132,-6.8314 12.5771,-13.0301 22.5219,-35.3406 24.3798,-57.6388 1.8578,-22.2982 -4.4865,-44.3246 -16.0201,-61.8409 -11.5337,-17.5163 -28.2581,-30.5242 -44.7658,-30.2244 z"
       id="path4659-9-0-5"
       inkscape:connector-curvature="0"
       inkscape:path-effect="#path-effect4661-0-7-3"
       inkscape:original-d="m 3927.3246,1558.1082 c -16.2913,13.6071 -32.5823,27.214 -48.877,40.8242 1.5872,25.1434 3.1731,50.2825 4.7583,75.4266 12.7368,22.0826 25.4714,44.1641 38.2059,66.2482 14.9797,-3.2296 29.9579,-6.4581 44.9352,-9.6856 10.1777,-22.8318 20.1225,-45.1423 30.1822,-67.7119 -6.3433,-22.0273 -12.6876,-44.0537 -19.0329,-66.0791 -16.7223,-13.008 -33.4468,-26.0159 -50.1717,-39.0224 z"
       sodipodi:nodetypes="cccccccc"
       inkscape:export-filename="C:\Users\Zylka Family\Documents\homewrecker\cookie-angry.png"
       inkscape:export-xdpi="96"
       inkscape:export-ydpi="96" />
    <path
       transform="matrix(0.27411127,0.09976835,-0.09976835,0.27411127,-777.42086,-804.46344)"
       style="display:inline;fill:#ffffff;stroke:#000000;stroke-width:1px;stroke-linecap:butt;stroke-linejoin:miter;stroke-opacity:0"
       d="m 3937.7781,1570.6506 c -6.736,2.5547 -12.279,6.8186 -14.2786,15.4128 -1.9996,8.5942 0.1524,18.9084 6.8891,29.4782 6.7366,10.5699 17.863,20.4681 28.7696,24.1399 10.9065,3.6718 21.5911,1.1168 27.2813,-6.3165 5.6903,-7.4333 6.3871,-19.744 4.8774,-29.8471 -1.5097,-10.1031 -5.2266,-18.0015 -10.9168,-23.6919 -5.6902,-5.6903 -13.3559,-9.1747 -20.9047,-10.6846 -7.5488,-1.5099 -14.9812,-1.0454 -21.7173,1.5092 z"
       id="path4683-5-9"
       inkscape:connector-curvature="0"
       inkscape:path-effect="#path-effect4685-9-4"
       inkscape:original-d="m 3937.0802,1568.5606 c -6.0382,4.6445 -11.5812,8.9084 -18.1175,13.9366 2.5384,12.1602 4.6904,22.4743 7.0343,33.7144 11.1292,9.8988 22.2556,19.797 33.3818,29.697 10.6857,-2.5561 21.3703,-5.1111 32.0541,-7.6651 0.6978,-12.3117 1.3946,-24.6224 2.0904,-36.9319 -3.7149,-7.8974 -7.4318,-15.7958 -11.1492,-23.6922 -7.6637,-3.4849 -15.3293,-6.9693 -22.9954,-10.4524 -7.4322,0.4636 -14.8646,0.9281 -22.2985,1.3936 z"
       sodipodi:nodetypes="ccccccccc"
       inkscape:export-filename="C:\Users\Zylka Family\Documents\homewrecker\cookie-angry.png"
       inkscape:export-xdpi="96"
       inkscape:export-ydpi="96" />
    <path
       style="display:inline;fill:#000000;stroke:#000000;stroke-width:0.2917031px;stroke-linecap:butt;stroke-linejoin:miter;stroke-opacity:0"
       d="m 116.05304,16.39159 26.33183,1.73194 c 0,0 22.63378,9.1916 26.82473,17.74388 1.78168,3.63564 -5.37551,10.03398 -5.37551,10.03398 l 13.29962,-8.01047 c 0,0 -7.75472,-12.25396 -12.40702,-15.74022 -7.761,-5.81583 -17.43081,-9.06642 -26.93342,-11.00471 -7.05255,-1.4384798 -21.59098,-0.31387 -21.59098,-0.31387 z"
       id="path4781-3-1"
       inkscape:connector-curvature="0"
       sodipodi:nodetypes="ccsccsscc"
       inkscape:export-filename="C:\Users\Zylka Family\Documents\homewrecker\cookie-angry.png"
       inkscape:export-xdpi="96"
       inkscape:export-ydpi="96" />
    <path
       style="display:inline;fill:#000000;stroke:#000000;stroke-width:0.32413247px;stroke-linecap:butt;stroke-linejoin:miter;stroke-opacity:1"
       d="m 149.1899,63.569135 -33.03624,-4.492773 2e-5,-3.8e-5 -0.0115,2.79976 31.279,4.16031 z"
       id="path6306-3-6"
       inkscape:connector-curvature="0"
       sodipodi:nodetypes="cccccc"
       inkscape:export-filename="C:\Users\Zylka Family\Documents\homewrecker\cookie-angry.png"
       inkscape:export-xdpi="96"
       inkscape:export-ydpi="96"
       inkscape:transform-center-x="-0.11397185"
       inkscape:transform-center-y="1.5652481" />
    <path
       transform="matrix(0.26357651,0.02305996,-0.02305996,0.26357651,-968.76486,-503.08884)"
       style="display:inline;fill:#ffffff;stroke:#000000;stroke-width:1px;stroke-linecap:butt;stroke-linejoin:miter;stroke-opacity:0"
       d="m 4007.2002,1574.3538 c -25.6961,-4.4861 -51.3908,-8.972 -75.8535,-8.9254 -24.4626,0.047 -47.6892,4.6259 -67.9713,10.8483 -20.2821,6.2224 -37.6146,14.086 -54.9488,21.9504 0,0 68.4621,134.9263 68.4621,134.9263 0,0 104.1789,8.4987 104.1789,8.4987 6.2424,-33.3082 12.485,-66.6174 16.8403,-94.4999 4.3554,-27.8825 6.8238,-50.3405 9.2923,-72.7984 z"
       id="path4653-1-5-6"
       inkscape:connector-curvature="0"
       inkscape:path-effect="#path-effect4655-1-3-3"
       inkscape:original-d="m 4007.2002,1574.3538 c 0,0 -51.3907,-8.9728 -77.0883,-13.4583 -23.228,4.5784 -46.4546,9.1577 -69.6828,13.7385 -17.3364,7.8639 -52.0025,23.5931 -52.0025,23.5931 l 68.4621,134.9263 104.1789,8.4987 c 0,0 12.4857,-66.6173 18.7272,-99.9245 2.4674,-22.458 7.4054,-67.3738 7.4054,-67.3738 z"
       sodipodi:nodetypes="cccccccc"
       inkscape:export-filename="C:\Users\Zylka Family\Documents\homewrecker\cookie-angry.png"
       inkscape:export-xdpi="96"
       inkscape:export-ydpi="96" />
    <path
       style="display:inline;fill:#552200;stroke:#000000;stroke-width:1px;stroke-linecap:butt;stroke-linejoin:miter;stroke-opacity:0"
       d="m 3927.541,1571.4156 c -16.5076,0.2998 -32.7986,13.9067 -40.1529,33.2835 -7.3543,19.3768 -5.7684,44.5159 1.3925,68.1295 7.1609,23.6137 19.8955,45.6952 33.7533,55.1225 13.8578,9.4273 28.836,6.1988 41.4132,-6.8314 12.5771,-13.0301 22.5219,-35.3406 24.3798,-57.6388 1.8578,-22.2982 -4.4865,-44.3246 -16.0201,-61.8409 -11.5337,-17.5163 -28.2581,-30.5242 -44.7658,-30.2244 z"
       id="path4659-52"
       inkscape:connector-curvature="0"
       inkscape:path-effect="#path-effect4661-2"
       inkscape:original-d="m 3927.3246,1558.1082 c -16.2913,13.6071 -32.5823,27.214 -48.877,40.8242 1.5872,25.1434 3.1731,50.2825 4.7583,75.4266 12.7368,22.0826 25.4714,44.1641 38.2059,66.2482 14.9797,-3.2296 29.9579,-6.4581 44.9352,-9.6856 10.1777,-22.8318 20.1225,-45.1423 30.1822,-67.7119 -6.3433,-22.0273 -12.6876,-44.0537 -19.0329,-66.0791 -16.7223,-13.008 -33.4468,-26.0159 -50.1717,-39.0224 z"
       sodipodi:nodetypes="cccccccc"
       transform="matrix(0.26056372,0.04594441,-0.04594441,0.26056372,-921.92336,-587.96231)"
       inkscape:export-filename="C:\Users\Zylka Family\Documents\homewrecker\cookie-angry.png"
       inkscape:export-xdpi="96"
       inkscape:export-ydpi="96" />
    <path
       transform="matrix(0.15428878,0.02720528,-0.02630345,0.14917426,-536.21508,-330.61776)"
       style="display:inline;fill:#000000;stroke:#000000;stroke-width:1px;stroke-linecap:butt;stroke-linejoin:miter;stroke-opacity:0"
       d="m 3927.541,1571.4156 c -16.5076,0.2998 -32.7986,13.9067 -40.1529,33.2835 -7.3543,19.3768 -5.7684,44.5159 1.3925,68.1295 7.1609,23.6137 19.8955,45.6952 33.7533,55.1225 13.8578,9.4273 28.836,6.1988 41.4132,-6.8314 12.5771,-13.0301 22.5219,-35.3406 24.3798,-57.6388 1.8578,-22.2982 -4.4865,-44.3246 -16.0201,-61.8409 -11.5337,-17.5163 -28.2581,-30.5242 -44.7658,-30.2244 z"
       id="path4659-9-1"
       inkscape:connector-curvature="0"
       inkscape:path-effect="#path-effect4661-0-8"
       inkscape:original-d="m 3927.3246,1558.1082 c -16.2913,13.6071 -32.5823,27.214 -48.877,40.8242 1.5872,25.1434 3.1731,50.2825 4.7583,75.4266 12.7368,22.0826 25.4714,44.1641 38.2059,66.2482 14.9797,-3.2296 29.9579,-6.4581 44.9352,-9.6856 10.1777,-22.8318 20.1225,-45.1423 30.1822,-67.7119 -6.3433,-22.0273 -12.6876,-44.0537 -19.0329,-66.0791 -16.7223,-13.008 -33.4468,-26.0159 -50.1717,-39.0224 z"
       sodipodi:nodetypes="cccccccc"
       inkscape:export-filename="C:\Users\Zylka Family\Documents\homewrecker\cookie-angry.png"
       inkscape:export-xdpi="96"
       inkscape:export-ydpi="96" />
    <path
       style="display:inline;fill:#ffffff;stroke:#000000;stroke-width:1px;stroke-linecap:butt;stroke-linejoin:miter;stroke-opacity:0"
       d="m 3937.7781,1570.6506 c -6.736,2.5547 -12.279,6.8186 -14.2786,15.4128 -1.9996,8.5942 0.1524,18.9084 6.8891,29.4782 6.7366,10.5699 17.863,20.4681 28.7696,24.1399 10.9065,3.6718 21.5911,1.1168 27.2813,-6.3165 5.6903,-7.4333 6.3871,-19.744 4.8774,-29.8471 -1.5097,-10.1031 -5.2266,-18.0015 -10.9168,-23.6919 -5.6902,-5.6903 -13.3559,-9.1747 -20.9047,-10.6846 -7.5488,-1.5099 -14.9812,-1.0454 -21.7173,1.5092 z"
       id="path4683-4"
       inkscape:connector-curvature="0"
       inkscape:path-effect="#path-effect4685-5"
       inkscape:original-d="m 3937.0802,1568.5606 c -6.0382,4.6445 -11.5812,8.9084 -18.1175,13.9366 2.5384,12.1602 4.6904,22.4743 7.0343,33.7144 11.1292,9.8988 22.2556,19.797 33.3818,29.697 10.6857,-2.5561 21.3703,-5.1111 32.0541,-7.6651 0.6978,-12.3117 1.3946,-24.6224 2.0904,-36.9319 -3.7149,-7.8974 -7.4318,-15.7958 -11.1492,-23.6922 -7.6637,-3.4849 -15.3293,-6.9693 -22.9954,-10.4524 -7.4322,0.4636 -14.8646,0.9281 -22.2985,1.3936 z"
       sodipodi:nodetypes="ccccccccc"
       transform="matrix(0.26056372,0.04594441,-0.04594441,0.26056372,-921.92336,-587.96231)"
       inkscape:export-filename="C:\Users\Zylka Family\Documents\homewrecker\cookie-angry.png"
       inkscape:export-xdpi="96"
       inkscape:export-ydpi="96" />
    <path
       style="display:inline;fill:#000000;stroke:#000000;stroke-width:0.26458332px;stroke-linecap:butt;stroke-linejoin:miter;stroke-opacity:0"
       d="M 52.059694,6.3964802 29.079047,-0.29601981 c 0,0 -22.1428728,0.81277 -28.36806884,6.80196001 C -1.9354368,9.0520502 2.1799452,16.72582 2.1799452,16.72582 l -8.85063,-10.9533598 c 0,0 10.41101,-8.03873 15.457831,-9.56693 8.4191208,-2.5494 17.6693508,-2.32013 26.3700158,-1.02426 6.457342,0.96176 18.499982,6.43046 18.499982,6.43046 z"
       id="path4781-0"
       inkscape:connector-curvature="0"
       sodipodi:nodetypes="ccsccsscc"
       inkscape:export-filename="C:\Users\Zylka Family\Documents\homewrecker\cookie-angry.png"
       inkscape:export-xdpi="96"
       inkscape:export-ydpi="96" />
    <path
       style="display:inline;fill:#000000;stroke:#000000;stroke-width:0.25650269px;stroke-linecap:butt;stroke-linejoin:miter;stroke-opacity:0"
       d="m 13.12593,43.130583 27.456417,3.9507 v 0 l -0.397785,2.01465 -27.074899,-3.17363 z"
       id="path6306-3-6-2"
       inkscape:connector-curvature="0"
       sodipodi:nodetypes="cccccc"
       inkscape:export-filename="C:\Users\Zylka Family\Documents\homewrecker\cookie-angry.png"
       inkscape:export-xdpi="96"
       inkscape:export-ydpi="96" />
    <path
       style="display:inline;fill:#d45500;stroke:#000000;stroke-width:0.38615316px;stroke-linecap:butt;stroke-linejoin:miter;stroke-opacity:0"
       d="m 52.816694,77.01676 c -0.6722,-0.12353 1.14017,5.61139 1.90696,6.33707 1.75951,1.41187 3.12886,-9.99705 3.12886,-9.99705 0,-2.66996 -3.81471,3.05724 -5.03582,3.65998 z"
       id="path4830-6"
       inkscape:connector-curvature="0"
       sodipodi:nodetypes="cccc"
       inkscape:export-filename="C:\Users\Zylka Family\Documents\homewrecker\cookie-angry.png"
       inkscape:export-xdpi="96"
       inkscape:export-ydpi="96" />
    <path
       style="display:inline;fill:#552200;stroke:#000000;stroke-width:0.32469839px;stroke-linecap:butt;stroke-linejoin:miter;stroke-opacity:0"
       d="m 60.548429,-32.384781 -31.642849,2.079099 -27.797932,18.807283 29.70908,-12.409625 25.598005,-3.027951 z"
       id="path4657-4-4-6"
       inkscape:connector-curvature="0"
       inkscape:export-filename="C:\Users\Zylka Family\Documents\homewrecker\cookie-angry.png"
       inkscape:export-xdpi="96"
       inkscape:export-ydpi="96" />
    <path
       style="display:inline;fill:#d4aa00;fill-opacity:1;stroke:#000000;stroke-width:0.26458332px;stroke-linecap:butt;stroke-linejoin:miter;stroke-opacity:0"
       d="m 109.87316,-158.34244 c -15.021926,-5.65759 -37.912796,0.37428 -53.190426,5.21475 -21.605477,6.84535 -40.904397,20.92077 -57.36222084,36.50324 -16.81572616,15.92133 -34.63681616,42.614481 -41.71799316,64.66287 -8.839385,27.52281 -13.726027,56.6396702 -12.5154,85.52185 1.235419,29.47327 2.064729,78.42366 15.644283,115.76743 0,0 29.202567,-147.0558898 29.202567,-139.7552598 0,7.3006398 3.1288302,50.0615698 5.2147522,43.8038798 2.085896,-6.25768 39.1831508,-83.61357 39.1831508,-83.61357 L 31.651988,21.0449 54.383694,-39.37844 63.532134,7.4394402 91.100084,-60.30519 c 0,0 -1.58727,42.6529 2.08589,40.67503 l 29.202566,-37.54614 3.71303,29.59266 19.2319,-31.67859 7.0644,30.45325 23.18112,-22.10964 c 0,0 37.93077,-38.513753 26.07373,-58.40518 -14.64621,-24.57058 -91.77956,-49.01864 -91.77956,-49.01864 z"
       id="path6537"
       inkscape:connector-curvature="0"
       sodipodi:nodetypes="ssssscsccccccscccccss"
       inkscape:export-xdpi="96"
       inkscape:export-ydpi="96"
       inkscape:export-filename="C:\Users\Zylka Family\Documents\homewrecker\cookie-angry.png" />
    <path
       style="display:inline;fill:#552200;stroke:#000000;stroke-width:0.32774168px;stroke-linecap:butt;stroke-linejoin:miter;stroke-opacity:0"
       d="m 118.25578,-20.620164 33.18451,0.164303 29.22251,16.6417915 -31.19977,-10.3142385 -26.85077,-1.440703 z"
       id="path4657-4-0"
       inkscape:connector-curvature="0"
       inkscape:export-filename="C:\Users\Zylka Family\Documents\homewrecker\cookie-angry.png"
       inkscape:export-xdpi="96"
       inkscape:export-ydpi="96" />
    <path
       style="display:inline;fill:#ff3d3d;fill-opacity:1;stroke:#000000;stroke-width:1px;stroke-linecap:butt;stroke-linejoin:miter;stroke-opacity:0"
       d="m 2873.8269,3074.1639 c 16.1278,-2.0761 47.0325,10.2324 75.2908,14.9496 28.2584,4.7172 53.8702,1.8427 78.8831,-1.4434 25.013,-3.2862 47.4139,-6.679 55.7873,-0.7237 8.3733,5.9553 -0.1195,19.9168 -21.1816,25.7958 -21.0622,5.8791 -56.7509,3.242 -82.867,0.5708 -26.1162,-2.6712 -43.7685,-5.4584 -63.1481,-6.1689 -19.3797,-0.7106 -40.4827,0.6556 -50.3616,-6.8929 -9.8789,-7.5485 -8.5306,-24.0111 7.5971,-26.0873 z"
       id="path6533"
       inkscape:connector-curvature="0"
       inkscape:path-effect="#path-effect6535"
       inkscape:original-d="m 2859.0474,3059.7782 c 30.9078,12.3083 61.8125,24.6169 92.7175,36.927 25.6111,-2.8751 51.2229,-5.7496 76.8329,-8.6233 24.4159,-3.6986 46.8168,-7.0914 73.2437,-11.0934 -9.6795,15.9136 -18.1723,29.875 -26.8297,44.1058 -33.4674,-2.4738 -69.1561,-5.1109 -103.7357,-7.6652 -17.6526,-2.7884 -35.3049,-5.5756 -52.9589,-8.3619 -21.1055,1.3657 -42.2085,2.7319 -63.3146,4.0989 1.3495,-16.4633 2.6977,-32.9259 4.0448,-49.3879 z"
       transform="matrix(0.21668717,0,0,0.35627275,-577.58254,-978.1782)"
       inkscape:export-xdpi="96"
       inkscape:export-ydpi="96"
       sodipodi:nodetypes="ccccccccc"
       inkscape:export-filename="C:\Users\Zylka Family\Documents\homewrecker\cookie-angry.png" />
    <path
       style="display:inline;fill:#d4aa00;stroke:#000000;stroke-width:0.30565238px;stroke-linecap:butt;stroke-linejoin:miter;stroke-opacity:0"
       d="m 189.00295,-96.8084 13.91853,-60.49108 18.09408,63.61991 34.79642,-52.14747 -8.35115,76.135309 48.71492,-29.202565 -33.40454,57.362226 16.70227,56.31926 -33.05183,-44.84682 -0.68649,71.96349 L 230.41719,3.3147502 210.59741,36.68913 181.21793,12.97574 172.3007,-34.23143 162.55771,-80.121209 Z"
       id="path6539"
       inkscape:connector-curvature="0"
       sodipodi:nodetypes="cccccccccccccccc"
       inkscape:export-xdpi="96"
       inkscape:export-ydpi="96"
       inkscape:export-filename="C:\Users\Zylka Family\Documents\homewrecker\cookie-angry.png" />
    <path
       style="display:inline;fill:#ff7f2a;stroke:#000000;stroke-width:0.26458332px;stroke-linecap:butt;stroke-linejoin:miter;stroke-opacity:0"
       d="m 38.837494,197.0262 c -12.204361,-0.27313 -25.102931,8.20658 -35.9357398,12.23163 -11.079982,4.11689 -22.3772142,4.26033 -32.6278872,10.14577 -7.844527,4.50398 -15.221295,10.79182 -21.207916,17.57288 -7.811029,8.84756 -12.305718,16.24619 -12.305718,16.24619 l 314.300567,0.96885 c 0,0 -32.11674,-18.52859 -42.37236,-27.41316 -10.25561,-8.8846 -33.92182,-14.41559 -46.99782,-20.03841 -13.076,-5.62282 -31.83806,-9.53479 -31.83806,-9.53479 l 1.21251,-13.76471 c -7.00876,-0.43688 -43.446406,0.79045 -49.989606,0.64535 -6.5432,-0.1451 -35.96425,-8.71625 -40.24259,-5.37681 0,0 1.66563,18.39912 -1.99538,18.31721 z"
       id="path6334-2"
       inkscape:connector-curvature="0"
       sodipodi:nodetypes="sssscczzccscs"
       inkscape:export-filename="C:\Users\Zylka Family\Documents\homewrecker\cookie-angry.png"
       inkscape:export-xdpi="96"
       inkscape:export-ydpi="96" />
    <path
       style="display:inline;fill:#ff6f92;fill-opacity:1;stroke:#ef6d80;stroke-width:0.26458332px;stroke-linecap:butt;stroke-linejoin:miter;stroke-opacity:1"
       d="m -15.540021,212.0476 4.424865,41.29871 h 38.348788 l -6.421279,-53.27727 z"
       id="path6558"
       inkscape:connector-curvature="0"
       sodipodi:nodetypes="ccccc"
       inkscape:export-xdpi="96"
       inkscape:export-ydpi="96"
       inkscape:export-filename="C:\Users\Zylka Family\Documents\homewrecker\cookie-angry.png" />
    <path
       style="display:inline;fill:#ff6f92;fill-opacity:1;stroke:#ef6d80;stroke-width:0.26458332px;stroke-linecap:butt;stroke-linejoin:miter;stroke-opacity:1"
       d="m 190.21842,212.15264 -4.42487,41.29871 h -38.34879 l 5.89981,-50.14841 z"
       id="path6558-0"
       inkscape:connector-curvature="0"
       sodipodi:nodetypes="ccccc"
       inkscape:export-xdpi="96"
       inkscape:export-ydpi="96"
       inkscape:export-filename="C:\Users\Zylka Family\Documents\homewrecker\cookie-angry.png" />
    <path
       style="display:inline;fill:#ff7f2a;stroke:#000000;stroke-width:1px;stroke-linecap:butt;stroke-linejoin:miter;stroke-opacity:0"
       d="m 3428.1013,2899.9644 c 2.6283,-24.9655 15.7678,-59.1282 29.9429,-82.122 14.1752,-22.9938 29.3865,-34.8198 43.3678,-30.5824 13.9814,4.2373 25.9927,23.3562 25.6143,47.0071 -0.3783,23.6508 -13.5177,51.2434 -29.9422,72.2671 -16.4246,21.0238 -36.133,35.4766 -49.9304,34.8194 -13.7974,-0.6572 -21.6806,-16.4237 -19.0524,-41.3892 z"
       id="path6575"
       inkscape:connector-curvature="0"
       inkscape:path-effect="#path-effect6577"
       inkscape:original-d="m 3417.5896,2909.1629 c 13.1405,-34.1638 26.28,-68.3265 39.4185,-102.4883 15.2112,-11.8261 30.4225,-23.6521 45.6323,-35.4767 13.6962,19.7068 24.7655,39.4176 37.1467,59.1278 -13.1387,27.5924 -26.278,55.185 -39.4186,82.779 -19.7091,14.4531 -39.4175,28.906 -59.1278,43.3604 -7.8832,-15.7693 -15.7664,-31.5358 -23.6511,-47.3022 z"
       transform="matrix(0.36011398,0,0,0.33236326,-1054.1257,-888.51514)"
       inkscape:export-xdpi="96"
       inkscape:export-ydpi="96"
       inkscape:export-filename="C:\Users\Zylka Family\Documents\homewrecker\cookie-angry.png" />
    <rect
       style="display:inline;opacity:1;vector-effect:none;fill:#e9afaf;fill-opacity:1;stroke:#000000;stroke-width:0.26458332px;stroke-linecap:butt;stroke-linejoin:miter;stroke-miterlimit:4;stroke-dasharray:none;stroke-dashoffset:0;stroke-opacity:0.00450451"
       id="rect6579"
       width="23.466387"
       height="41.717995"
       x="179.75078"
       y="95.615768"
       rx="4.2646598e-06"
       ry="4.2646598e-06"
       inkscape:export-xdpi="96"
       inkscape:export-ydpi="96"
       inkscape:export-filename="C:\Users\Zylka Family\Documents\homewrecker\cookie-angry.png" />
    <rect
       style="display:inline;opacity:1;vector-effect:none;fill:#ff8080;fill-opacity:1;stroke:#000000;stroke-width:0.26458332px;stroke-linecap:butt;stroke-linejoin:miter;stroke-miterlimit:4;stroke-dasharray:none;stroke-dashoffset:0;stroke-opacity:0"
       id="rect6583"
       width="7.8221211"
       height="15.122767"
       x="182.48854"
       y="99.52684"
       rx="4.2646598e-06"
       ry="4.2646598e-06"
       inkscape:export-xdpi="96"
       inkscape:export-ydpi="96"
       inkscape:export-filename="C:\Users\Zylka Family\Documents\homewrecker\cookie-angry.png" />
    <rect
       style="display:inline;opacity:1;vector-effect:none;fill:#ff8080;fill-opacity:1;stroke:#000000;stroke-width:0.26458332px;stroke-linecap:butt;stroke-linejoin:miter;stroke-miterlimit:4;stroke-dasharray:none;stroke-dashoffset:0;stroke-opacity:0"
       id="rect6583-2"
       width="7.8221211"
       height="15.122767"
       x="192.918"
       y="99.787613"
       rx="4.2646598e-06"
       ry="4.2646598e-06"
       inkscape:export-xdpi="96"
       inkscape:export-ydpi="96"
       inkscape:export-filename="C:\Users\Zylka Family\Documents\homewrecker\cookie-angry.png" />
    <rect
       style="display:inline;opacity:1;vector-effect:none;fill:#ff8080;fill-opacity:1;stroke:#000000;stroke-width:0.26458332px;stroke-linecap:butt;stroke-linejoin:miter;stroke-miterlimit:4;stroke-dasharray:none;stroke-dashoffset:0;stroke-opacity:0"
       id="rect6583-5"
       width="7.8221211"
       height="15.122767"
       x="182.6189"
       y="117.9088"
       rx="4.2646598e-06"
       ry="4.2646598e-06"
       inkscape:export-xdpi="96"
       inkscape:export-ydpi="96"
       inkscape:export-filename="C:\Users\Zylka Family\Documents\homewrecker\cookie-angry.png" />
    <rect
       style="display:inline;opacity:1;vector-effect:none;fill:#ff8080;fill-opacity:1;stroke:#000000;stroke-width:0.26458332px;stroke-linecap:butt;stroke-linejoin:miter;stroke-miterlimit:4;stroke-dasharray:none;stroke-dashoffset:0;stroke-opacity:0"
       id="rect6583-2-1"
       width="7.8221211"
       height="15.122767"
       x="193.04837"
       y="118.16957"
       rx="4.2646598e-06"
       ry="4.2646598e-06"
       inkscape:export-xdpi="96"
       inkscape:export-ydpi="96"
       inkscape:export-filename="C:\Users\Zylka Family\Documents\homewrecker\cookie-angry.png" />
    <ellipse
       style="display:inline;opacity:1;vector-effect:none;fill:#a02c2c;fill-opacity:1;stroke:#000000;stroke-width:0.61291981px;stroke-linecap:butt;stroke-linejoin:miter;stroke-miterlimit:4;stroke-dasharray:none;stroke-dashoffset:0;stroke-opacity:0"
       id="path6618"
       cx="191.6795"
       cy="86.815872"
       rx="1.9769151"
       ry="10.841986"
       inkscape:export-xdpi="96"
       inkscape:export-ydpi="96"
       inkscape:export-filename="C:\Users\Zylka Family\Documents\homewrecker\cookie-angry.png" />
    <path
       style="opacity:1;fill:#001aff;fill-opacity:1;stroke:#000000;stroke-width:0.26458332px;stroke-linecap:butt;stroke-linejoin:miter;stroke-opacity:0"
       d="m 279.33048,186.14435 c -0.60155,-0.1356 1.1773,-1.98999 4.02586,-2.4921 2.84856,-0.50212 4.59188,0.11648 6.45551,0.22345 1.86364,0.10698 5.90053,-0.50266 8.56463,-0.0612 2.6641,0.44147 4.23968,1.64916 5.94713,2.95791 -8.60901,-0.17382 -24.39158,-0.49248 -24.99313,-0.62808 z"
       id="path20231"
       inkscape:connector-curvature="0"
       inkscape:path-effect="#path-effect20233"
       inkscape:original-d="m 278.49658,186.25097 c 0.23236,-0.24221 2.01121,-2.0966 4.17665,-4.354 3.53178,1.25285 5.2751,1.87144 6.81066,2.41667 2.19157,-0.33118 6.22846,-0.94081 9.71738,-1.46747 1.83953,1.40953 5.12234,3.92626 5.12234,3.92626 0,0 -24.39157,-0.49275 -25.82703,-0.52146 z"
       sodipodi:nodetypes="cccccc"
       transform="matrix(1.3288311,0.14051547,-0.33792097,1.8567714,-192.09046,-325.98674)"
       inkscape:transform-center-x="-16.587554"
       inkscape:transform-center-y="0.47865746"
       inkscape:export-xdpi="96"
       inkscape:export-ydpi="96" />
    <path
       style="opacity:1;fill:#ffff80;fill-opacity:1;stroke:#ffffff;stroke-width:0.26458332px;stroke-linecap:butt;stroke-linejoin:miter;stroke-opacity:0"
       d="m 296.23514,184.44609 c 0.70154,0.0112 1.77062,0.12255 2.80746,0.3639 1.03685,0.24135 2.08121,0.62731 2.41541,0.88335 0.3342,0.25603 -0.0222,0.38969 -0.62403,0.31169 -0.60181,-0.078 -1.44742,-0.36728 -2.34949,-0.54549 -0.90208,-0.1782 -1.85961,-0.24501 -2.47223,-0.36752 -0.61263,-0.12251 -0.87984,-0.30065 -0.84625,-0.43435 0.0336,-0.13371 0.36759,-0.22277 1.06913,-0.21158 z"
       id="path20782-2"
       inkscape:connector-curvature="0"
       inkscape:path-effect="#path-effect20784-7"
       inkscape:original-d="m 295.86737,184.34589 c 1.06934,0.1111 2.13842,0.22246 3.20723,0.33409 1.00229,0.37828 2.04933,0.757 3.07361,1.1359 -0.35605,0.13335 -0.71247,0.267 -1.0691,0.4009 -0.84683,-0.29007 -1.69244,-0.57935 -2.53905,-0.86863 -0.95763,-0.0671 -1.91516,-0.1339 -2.87314,-0.20045 -0.26709,-0.17849 -0.5343,-0.35662 -0.80182,-0.53454 0.33444,-0.0894 0.66845,-0.17844 1.00227,-0.26727 z"
       transform="matrix(1.5579315,0.1647414,-0.33792097,1.8567714,-261.7517,-333.77568)"
       inkscape:transform-center-x="-24.443324"
       inkscape:transform-center-y="0.68881113"
       inkscape:export-xdpi="96"
       inkscape:export-ydpi="96" />
    <path
       style="opacity:1;fill:#ffff80;fill-opacity:1;stroke:#ffffff;stroke-width:0.26458332px;stroke-linecap:butt;stroke-linejoin:miter;stroke-opacity:0"
       d="m 296.23514,184.44609 c 0.70154,0.0112 1.77062,0.12255 2.80746,0.3639 1.03685,0.24135 2.08121,0.62731 2.41541,0.88335 0.3342,0.25603 -0.0222,0.38969 -0.62403,0.31169 -0.60181,-0.078 -1.44742,-0.36728 -2.34949,-0.54549 -0.90208,-0.1782 -1.85961,-0.24501 -2.47223,-0.36752 -0.61263,-0.12251 -0.87984,-0.30065 -0.84625,-0.43435 0.0336,-0.13371 0.36759,-0.22277 1.06913,-0.21158 z"
       id="path20782-2-1"
       inkscape:connector-curvature="0"
       inkscape:path-effect="#path-effect20784-7-3"
       inkscape:original-d="m 295.86737,184.34589 c 1.06934,0.1111 2.13842,0.22246 3.20723,0.33409 1.00229,0.37828 2.04933,0.757 3.07361,1.1359 -0.35605,0.13335 -0.71247,0.267 -1.0691,0.4009 -0.84683,-0.29007 -1.69244,-0.57935 -2.53905,-0.86863 -0.95763,-0.0671 -1.91516,-0.1339 -2.87314,-0.20045 -0.26709,-0.17849 -0.5343,-0.35662 -0.80182,-0.53454 0.33444,-0.0894 0.66845,-0.17844 1.00227,-0.26727 z"
       transform="matrix(1.1645935,-0.11669949,-0.20029763,1.8549739,-184.45705,-251.89471)"
       inkscape:transform-center-x="-9.8739666"
       inkscape:transform-center-y="-1.8094877"
       inkscape:export-xdpi="96"
       inkscape:export-ydpi="96" />
    <path
       style="opacity:1;fill:#001aff;fill-opacity:1;stroke:#000000;stroke-width:0.26458332px;stroke-linecap:butt;stroke-linejoin:miter;stroke-opacity:0"
       d="m 279.33048,186.14435 c -0.60155,-0.1356 1.1773,-1.98999 4.02586,-2.4921 2.84856,-0.50212 4.59188,0.11648 6.45551,0.22345 1.86364,0.10698 5.90053,-0.50266 8.56463,-0.0612 2.6641,0.44147 4.23968,1.64916 5.94713,2.95791 -8.60901,-0.17382 -24.39158,-0.49248 -24.99313,-0.62808 z"
       id="path20231-4"
       inkscape:connector-curvature="0"
       inkscape:path-effect="#path-effect20233-1"
       inkscape:original-d="m 278.49658,186.25097 c 0.23236,-0.24221 2.01121,-2.0966 4.17665,-4.354 3.53178,1.25285 5.2751,1.87144 6.81066,2.41667 2.19157,-0.33118 6.22846,-0.94081 9.71738,-1.46747 1.83953,1.40953 5.12234,3.92626 5.12234,3.92626 0,0 -24.39157,-0.49275 -25.82703,-0.52146 z"
       sodipodi:nodetypes="cccccc"
       transform="matrix(1.1054,0.08277409,-0.2161571,1.8506288,-255.44478,-323.75527)"
       inkscape:transform-center-x="-13.608438"
       inkscape:transform-center-y="-0.58094641"
       inkscape:export-xdpi="96"
       inkscape:export-ydpi="96" />
    <path
       style="opacity:1;fill:#ffff80;fill-opacity:1;stroke:#ffffff;stroke-width:0.26458332px;stroke-linecap:butt;stroke-linejoin:miter;stroke-opacity:0"
       d="m 296.23514,184.44609 c 0.70154,0.0112 1.77062,0.12255 2.80746,0.3639 1.03685,0.24135 2.08121,0.62731 2.41541,0.88335 0.3342,0.25603 -0.0222,0.38969 -0.62403,0.31169 -0.60181,-0.078 -1.44742,-0.36728 -2.34949,-0.54549 -0.90208,-0.1782 -1.85961,-0.24501 -2.47223,-0.36752 -0.61263,-0.12251 -0.87984,-0.30065 -0.84625,-0.43435 0.0336,-0.13371 0.36759,-0.22277 1.06913,-0.21158 z"
       id="path20782-2-13"
       inkscape:connector-curvature="0"
       inkscape:path-effect="#path-effect20784-7-2"
       inkscape:original-d="m 295.86737,184.34589 c 1.06934,0.1111 2.13842,0.22246 3.20723,0.33409 1.00229,0.37828 2.04933,0.757 3.07361,1.1359 -0.35605,0.13335 -0.71247,0.267 -1.0691,0.4009 -0.84683,-0.29007 -1.69244,-0.57935 -2.53905,-0.86863 -0.95763,-0.0671 -1.91516,-0.1339 -2.87314,-0.20045 -0.26709,-0.17849 -0.5343,-0.35662 -0.80182,-0.53454 0.33444,-0.0894 0.66845,-0.17844 1.00227,-0.26727 z"
       transform="matrix(1.2959792,0.09704496,-0.2161571,1.8506288,-313.40765,-328.51258)"
       inkscape:transform-center-x="-20.05515"
       inkscape:transform-center-y="-0.53982518"
       inkscape:export-xdpi="96"
       inkscape:export-ydpi="96" />
    <path
       style="opacity:1;fill:#ffff80;fill-opacity:1;stroke:#ffffff;stroke-width:0.26458332px;stroke-linecap:butt;stroke-linejoin:miter;stroke-opacity:0"
       d="m 296.23514,184.44609 c 0.70154,0.0112 1.77062,0.12255 2.80746,0.3639 1.03685,0.24135 2.08121,0.62731 2.41541,0.88335 0.3342,0.25603 -0.0222,0.38969 -0.62403,0.31169 -0.60181,-0.078 -1.44742,-0.36728 -2.34949,-0.54549 -0.90208,-0.1782 -1.85961,-0.24501 -2.47223,-0.36752 -0.61263,-0.12251 -0.87984,-0.30065 -0.84625,-0.43435 0.0336,-0.13371 0.36759,-0.22277 1.06913,-0.21158 z"
       id="path20782-2-1-9"
       inkscape:connector-curvature="0"
       inkscape:path-effect="#path-effect20784-7-3-8"
       inkscape:original-d="m 295.86737,184.34589 c 1.06934,0.1111 2.13842,0.22246 3.20723,0.33409 1.00229,0.37828 2.04933,0.757 3.07361,1.1359 -0.35605,0.13335 -0.71247,0.267 -1.0691,0.4009 -0.84683,-0.29007 -1.69244,-0.57935 -2.53905,-0.86863 -0.95763,-0.0671 -1.91516,-0.1339 -2.87314,-0.20045 -0.26709,-0.17849 -0.5343,-0.35662 -0.80182,-0.53454 0.33444,-0.0894 0.66845,-0.17844 1.00227,-0.26727 z"
       transform="matrix(0.96054662,-0.16466489,-0.10223499,1.8430312,-246.57993,-250.80138)"
       inkscape:transform-center-x="-7.9051393"
       inkscape:transform-center-y="-2.4118822"
       inkscape:export-xdpi="96"
       inkscape:export-ydpi="96" />
  </g>
</svg>
